<svg xmlns="http://www.w3.org/2000/svg" xmlns:xlink="http://www.w3.org/1999/xlink" viewBox="0 0 1920 1080"><defs><style>.cls-1,.cls-3,.cls-6,.cls-7{fill:none;}.cls-2,.cls-4{fill:#fff;opacity:0;}.cls-2,.cls-3,.cls-6,.cls-7{stroke:#6b8596;}.cls-2,.cls-7{stroke-miterlimit:10;}.cls-3,.cls-6{stroke-linecap:round;}.cls-3{stroke-linejoin:round;}.cls-3,.cls-6,.cls-7{stroke-width:2px;}.cls-5{fill:#6b8596;}.cls-8{opacity:0.2;fill:url(#New_Pattern);}</style><pattern id="New_Pattern" data-name="New Pattern" width="276.29" height="424.57" patternUnits="userSpaceOnUse" viewBox="0 0 276.29 424.57"><rect class="cls-1" width="276.29" height="424.57"/><g id="Group_2418" data-name="Group 2418"><g id="Rectangle_1233" data-name="Rectangle 1233"><polygon class="cls-2" points="119.61 187.41 166.95 195.36 174.9 148.02 127.56 140.07 119.61 187.41"/></g><g id="Group_2426" data-name="Group 2426"><path id="Path_1883" data-name="Path 1883" class="cls-3" d="M161,165.28a10.53,10.53,0,0,1-4.13,20.64l-26.43-4.44a8.61,8.61,0,0,1,1.94-17.09,9.71,9.71,0,0,1,.13-1,14.36,14.36,0,0,1,28.5,1.89Z"/><path id="Path_1884" data-name="Path 1884" class="cls-3" d="M153.57,167.14l-9,6.4h0a.54.54,0,0,1-.76-.12l-3-4.27"/></g></g><g id="Group_2419" data-name="Group 2419"><g id="Rectangle_1234" data-name="Rectangle 1234"><polygon class="cls-2" points="146.81 289.69 194.14 297.64 202.09 250.3 154.76 242.35 146.81 289.69"/></g><g id="Group_2428" data-name="Group 2428"><g id="Group_2399" data-name="Group 2399"><g id="Group_2398" data-name="Group 2398"><path id="Path_1866" data-name="Path 1866" class="cls-3" d="M158,274.38a5.42,5.42,0,0,0,4.58,5c.83.14,3.86.2,4.58-2.32,1.51-5.28-7.72-4.06-7.3-8.54.24-2.55,2.89-3.13,4.89-2.79,2.21.37,3.74,1.91,3.64,4"/><line id="Line_304" data-name="Line 304" class="cls-3" x1="161.92" y1="283.12" x2="165.43" y2="262.2"/></g><path id="Path_1867" data-name="Path 1867" class="cls-3" d="M194.72,268.88l-4.2,25,0,0-3.28,1.14a2.27,2.27,0,0,1-2.2-.37l-1.76-1.38a2.27,2.27,0,0,0-2.2-.37l-2.1.73a2.29,2.29,0,0,1-2.22-.37L175,291.92a2.33,2.33,0,0,0-2.24-.37l-2.08.73a2.31,2.31,0,0,1-2.22-.37l-1.72-1.37a2.29,2.29,0,0,0-2.22-.38l-2.05.74a2.31,2.31,0,0,1-2.22-.37l-1.69-1.37a2.39,2.39,0,0,0-2.27-.38l-2.05.74a2.3,2.3,0,0,1-2.22-.37L149.34,287l6.33-37.7h0l.61-3.64,1.7-.61,1.6-.55a2.2,2.2,0,0,1,2.19.37l1.77,1.37a2.22,2.22,0,0,0,2.2.37l2.1-.73a2.27,2.27,0,0,1,2.21.38l1.7,1.36A2.32,2.32,0,0,0,174,248l2.05-.74a2.34,2.34,0,0,1,2.25.38L180,249a2.27,2.27,0,0,0,1.86.47"/></g><g id="Group_2427" data-name="Group 2427"><circle id="Ellipse_368" data-name="Ellipse 368" class="cls-3" cx="185.89" cy="260.75" r="11.99"/><path id="Path_1885" data-name="Path 1885" class="cls-3" d="M190.11,267.36l-4.31-6.05,1.19-7.08"/></g></g></g><g id="Rectangle_1232" data-name="Rectangle 1232"><polygon class="cls-4" points="153.56 53.58 200.9 61.53 208.85 14.2 161.51 6.24 153.56 53.58"/></g><path id="Rectangle_1234-2" data-name="Rectangle 1234-2" class="cls-3" d="M172.73,12.46a22.85,22.85,0,0,0-12.91,29.65h0A22.86,22.86,0,0,0,189.47,55h0a22.87,22.87,0,0,0,12.91-29.66h0a22.87,22.87,0,0,0-29.65-12.91Z"/><path id="Path_5208" data-name="Path 5208" class="cls-5" d="M182.65,49.12a1.19,1.19,0,0,0,.84-.18,1.17,1.17,0,0,0,.31-1.6l-7.92-11.11,3,.5a7,7,0,0,0,7.64-4.36l.09-.23,1.81.31a1.17,1.17,0,0,0,1.33-1,1.15,1.15,0,0,0-.94-1.32L187,29.87v-.24a7,7,0,0,0-.81-3l-.29-.53,3.51.58a1.14,1.14,0,0,0,1.32-.94,1.16,1.16,0,0,0-.94-1.33l-14.31-2.4a1.15,1.15,0,0,0-.38,2.27l5.72,1a4.65,4.65,0,0,1,3.79,3.78l.07.42-10.17-1.71A1.15,1.15,0,0,0,174.1,30l10.17,1.7-.2.38a4.65,4.65,0,0,1-4.82,2.33l-5.72-1a1.15,1.15,0,0,0-1.13,1.8l9.51,13.36a1.18,1.18,0,0,0,.74.45Z"/><g id="Group_2415" data-name="Group 2415"><g id="Rectangle_1230" data-name="Rectangle 1230"><polygon class="cls-2" points="11.07 209.74 58.41 217.69 66.36 170.35 19.02 162.4 11.07 209.74"/></g><g id="Group_2421" data-name="Group 2421"><g id="Layer_1" data-name="Layer 1"><path id="Path_1864" data-name="Path 1864" class="cls-3" d="M56.83,195.68l-2.35,14a6.26,6.26,0,0,1-7.22,5.14l-28.85-4.84h0a6.28,6.28,0,0,1-5.14-7.23l5.54-33A6.28,6.28,0,0,1,26,164.59l28.86,4.85A6.26,6.26,0,0,1,60,176.66l-3.19,19Z"/></g><g id="Layer_2" data-name="Layer 2"><path id="Path_1888" data-name="Path 1888" class="cls-3" d="M38.66,177.78a.56.56,0,0,0-.76.24l-3.63,7a.55.55,0,0,1-.59.29L25.94,184a.55.55,0,0,0-.49.15.57.57,0,0,0,0,.8l5.49,5.6a.55.55,0,0,1,.1.66l-3.62,6.95a.56.56,0,0,0,0,.52.58.58,0,0,0,.77.26l7-3.5a.58.58,0,0,1,.66.11l5.5,5.6a.56.56,0,0,0,.49.16.57.57,0,0,0,.48-.64l-1.16-7.76a.58.58,0,0,1,.31-.59l7-3.5a.57.57,0,0,0,.31-.41.58.58,0,0,0-.47-.66l-7.73-1.29a.56.56,0,0,1-.47-.48L39,178.2A.53.53,0,0,0,38.66,177.78Z"/></g></g></g><g id="Group_2413" data-name="Group 2413"><g id="Rectangle_1229" data-name="Rectangle 1229"><polygon class="cls-2" points="62.05 394.92 103.13 401.81 110.03 360.74 68.95 353.84 62.05 394.92"/></g><g id="Group_2414" data-name="Group 2414"><path id="Path_1877" data-name="Path 1877" class="cls-3" d="M106.19,369.25l1.32-7.86L88.23,375.58,84.45,371,65.57,384.49"/><line id="Line_306" data-name="Line 306" class="cls-6" x1="99.2" y1="359.8" x2="107.53" y2="361.2"/><line id="Line_307" data-name="Line 307" class="cls-3" x1="66.3" y1="394.48" x2="67.15" y2="389.44"/><line id="Line_308" data-name="Line 308" class="cls-3" x1="74.2" y1="395.81" x2="76.2" y2="383.87"/><line id="Line_309" data-name="Line 309" class="cls-3" x1="82.09" y1="397.14" x2="85.04" y2="379.58"/><line id="Line_310" data-name="Line 310" class="cls-3" x1="89.99" y1="398.46" x2="93.47" y2="377.74"/><line id="Line_311" data-name="Line 311" class="cls-3" x1="97.89" y1="399.79" x2="102.63" y2="371.54"/></g></g><g id="Group_2409" data-name="Group 2409"><g id="Rectangle_1228" data-name="Rectangle 1228"><polygon class="cls-2" points="19.64 310.21 66.98 318.16 74.93 270.82 27.59 262.87 19.64 310.21"/></g><g id="Group_2412" data-name="Group 2412"><g id="Group_2410" data-name="Group 2410"><path id="Path_1872" data-name="Path 1872" class="cls-3" d="M44.07,272.74a7.94,7.94,0,1,1-9.14,6.56,8,8,0,0,1,9.14-6.56Z"/><path id="Path_1873" data-name="Path 1873" class="cls-3" d="M50.6,281.9a8,8,0,1,0-9.16,6.53,8,8,0,0,0,9.16-6.53Z"/></g><path id="Path_1874" data-name="Path 1874" class="cls-3" d="M55.05,309.34A16.89,16.89,0,0,0,21.7,304L55,309.6C55,309.51,55,309.43,55.05,309.34Z"/><g id="Group_2411" data-name="Group 2411"><path id="Path_1875" data-name="Path 1875" class="cls-3" d="M47.65,287.09l.12.16a7.94,7.94,0,1,0,1.57-11.12"/></g><path id="Path_1876" data-name="Path 1876" class="cls-3" d="M55,309.6l11.36,1.9a16.89,16.89,0,0,0-19.7-19.41"/></g></g><circle id="Ellipse_370" data-name="Ellipse 370" class="cls-3" cx="231.47" cy="358.91" r="22.63"/><path id="Rectangle_1244" data-name="Rectangle 1244" class="cls-7" d="M219.91,352.59l-1.85,11a3.74,3.74,0,0,0,3.07,4.3l17.15,2.88a3.74,3.74,0,0,0,4.3-3.06l1.85-11a3.73,3.73,0,0,0-3.07-4.3l-17.14-2.89A3.75,3.75,0,0,0,219.91,352.59Z"/><path id="Path_1893" data-name="Path 1893" class="cls-7" d="M237.89,351.09l.26-1.58h0a1.89,1.89,0,0,0-1.56-2.18l-6.15-1h0a1.9,1.9,0,0,0-2.19,1.55l-.26,1.58"/><path id="Path_1894" data-name="Path 1894" class="cls-7" d="M243.64,361.56c-5.44,1.61-16.44,1.72-24.41-4.75"/><polygon class="cls-2" points="209.91 144.1 257.24 152.05 265.19 104.72 217.86 96.77 209.91 144.1"/><path id="Path_1864-2" data-name="Path 1864-2" class="cls-3" d="M256.66,130.21l-2.35,14h0a6.26,6.26,0,0,1-7.22,5.14l-28.86-4.84h0a6.28,6.28,0,0,1-5.14-7.23l5.54-33h0a6.27,6.27,0,0,1,7.22-5.15L254.71,104a6.27,6.27,0,0,1,5.14,7.22l-3.19,19Z"/><path id="Path_1870" data-name="Path 1870" class="cls-3" d="M243.54,131.8l-13.74-2.31a2.71,2.71,0,0,1-1.12-4.88l1.93-1.37-1-12.95-3.1-.52"/><path id="Path_1871" data-name="Path 1871" class="cls-3" d="M230.65,123.22l-1.84,1.31L242,126.75a1.6,1.6,0,0,0,1.53-.63l6.27-8.52a1.54,1.54,0,0,0,.29-.67,1.58,1.58,0,0,0-1.29-1.82l-19-3.2Z"/><circle id="Ellipse_366" data-name="Ellipse 366" class="cls-5" cx="230.34" cy="134.37" r="1.58"/><circle id="Ellipse_367" data-name="Ellipse 367" class="cls-5" cx="240.74" cy="136.11" r="1.58"/><g id="Group_2396" data-name="Group 2396"><g id="Rectangle_1223" data-name="Rectangle 1223"><polygon class="cls-2" points="42.96 80.22 90.3 88.18 98.25 40.84 50.91 32.89 42.96 80.22"/></g><g id="Group_2395" data-name="Group 2395"><path id="Path_1864-3" data-name="Path 1864-3" class="cls-3" d="M86.42,80.06h0a6.28,6.28,0,0,1-7.22,5.15L50.34,80.36h0a6.26,6.26,0,0,1-5.14-7.22l5.54-33h0A6.26,6.26,0,0,1,58,35l28.85,4.84h0A6.28,6.28,0,0,1,92,47.09l-3.2,19Z"/><line id="Line_301" data-name="Line 301" class="cls-3" x1="83.18" y1="51" x2="57.46" y2="46.68"/><line id="Line_302" data-name="Line 302" class="cls-3" x1="69.09" y1="57.04" x2="56.09" y2="54.86"/><path id="Path_1865" data-name="Path 1865" class="cls-3" d="M72.06,69.78a5,5,0,0,0,4.18,4.53c.75.13,3.51.18,4.17-2.11,1.37-4.82-7-3.7-6.66-7.79.22-2.32,2.64-2.85,4.47-2.54a3.57,3.57,0,0,1,3.31,3.61"/><line id="Line_303" data-name="Line 303" class="cls-3" x1="75.61" y1="77.75" x2="78.81" y2="58.68"/></g></g></pattern></defs><g id="Layer_2-2" data-name="Layer 2"><g id="Layer_1-3" data-name="Layer 1"><rect class="cls-8" width="1920" height="1080"/></g></g></svg>