<?xml version="1.0" encoding="utf-8"?>
<!-- Generator: Adobe Illustrator 23.0.0, SVG Export Plug-In . SVG Version: 6.00 Build 0)  -->
<svg version="1.1" id="Слой_1" xmlns="http://www.w3.org/2000/svg" xmlns:xlink="http://www.w3.org/1999/xlink" x="0px" y="0px"
	 viewBox="0 0 447 383" style="enable-background:new 0 0 447 383;" xml:space="preserve">
<style type="text/css">
	.st0{opacity:0.33;fill:url(#SVGID_1_);}
	.st1{opacity:0.13;fill:url(#SVGID_2_);}
	.st2{opacity:0.23;fill:#FF0000;}
	.st3{opacity:0.12;fill:#00D005;}
	.st4{opacity:0.57;fill:#1BDECC;}
	.st5{opacity:0.22;fill:#1BDECC;}
	.st6{opacity:0.33;fill:url(#SVGID_3_);}
	.st7{fill:#AF5435;}
	.st8{fill:#CD714D;}
	.st9{fill:none;stroke:url(#SVGID_4_);stroke-width:1.2025;stroke-linecap:round;stroke-linejoin:round;stroke-miterlimit:10;}
	.st10{fill:none;stroke:url(#SVGID_5_);stroke-width:1.2025;stroke-linecap:round;stroke-linejoin:round;stroke-miterlimit:10;}
	.st11{fill:#804128;}
	.st12{fill:none;stroke:url(#SVGID_6_);stroke-width:1.2025;stroke-linecap:round;stroke-linejoin:round;stroke-miterlimit:10;}
	.st13{fill:none;stroke:url(#SVGID_7_);stroke-width:1.2025;stroke-linecap:round;stroke-linejoin:round;stroke-miterlimit:10;}
	.st14{fill:#CA7048;}
	.st15{fill:#E3894D;}
	.st16{fill:none;stroke:url(#SVGID_8_);stroke-width:1.2025;stroke-linecap:round;stroke-linejoin:round;stroke-miterlimit:10;}
	.st17{fill:none;stroke:url(#SVGID_9_);stroke-width:1.2025;stroke-linecap:round;stroke-linejoin:round;stroke-miterlimit:10;}
	.st18{fill:none;stroke:url(#SVGID_10_);stroke-width:1.2025;stroke-linecap:round;stroke-linejoin:round;stroke-miterlimit:10;}
	.st19{fill:#BD6248;}
	.st20{fill:none;stroke:url(#SVGID_11_);stroke-width:1.2025;stroke-linecap:round;stroke-linejoin:round;stroke-miterlimit:10;}
	.st21{fill:#DA7A4D;}
	.st22{fill:#DA8B4D;}
	.st23{fill:#003974;}
	.st24{fill:none;stroke:url(#SVGID_12_);stroke-width:1.2025;stroke-linecap:round;stroke-linejoin:round;stroke-miterlimit:10;}
	.st25{fill:none;stroke:url(#SVGID_13_);stroke-width:1.2025;stroke-linecap:round;stroke-linejoin:round;stroke-miterlimit:10;}
	.st26{fill:none;stroke:url(#SVGID_14_);stroke-width:1.2025;stroke-linecap:round;stroke-linejoin:round;stroke-miterlimit:10;}
	.st27{opacity:0.65;fill:url(#SVGID_15_);}
	.st28{opacity:0.65;fill:url(#SVGID_16_);}
	.st29{fill:#69527C;}
	.st30{fill:#FFBD3A;}
	.st31{fill:#5A2618;}
	.st32{fill:none;stroke:#63A9FF;stroke-width:1.2025;stroke-linecap:round;stroke-linejoin:round;stroke-miterlimit:10;}
	.st33{fill:none;stroke:url(#SVGID_17_);stroke-width:1.2025;stroke-linecap:round;stroke-linejoin:round;stroke-miterlimit:10;}
	.st34{fill:none;stroke:url(#SVGID_18_);stroke-width:1.2025;stroke-linecap:round;stroke-linejoin:round;stroke-miterlimit:10;}
	.st35{fill:none;stroke:url(#SVGID_19_);stroke-width:1.2025;stroke-linecap:round;stroke-linejoin:round;stroke-miterlimit:10;}
	.st36{fill:none;}
	.st37{fill:none;stroke:url(#SVGID_20_);stroke-width:1.2025;stroke-linecap:round;stroke-linejoin:round;stroke-miterlimit:10;}
	.st38{fill:#482C63;}
	.st39{fill:none;stroke:#003974;stroke-width:1.2012;stroke-miterlimit:10;}
	.st40{fill:none;stroke:url(#SVGID_21_);stroke-width:1.2025;stroke-linecap:round;stroke-linejoin:round;stroke-miterlimit:10;}
	.st41{fill:none;stroke:url(#SVGID_22_);stroke-width:1.2025;stroke-linecap:round;stroke-linejoin:round;stroke-miterlimit:10;}
	.st42{fill:none;stroke:url(#SVGID_23_);stroke-width:1.2025;stroke-linecap:round;stroke-linejoin:round;stroke-miterlimit:10;}
	.st43{fill:none;stroke:url(#SVGID_24_);stroke-width:1.2025;stroke-linecap:round;stroke-linejoin:round;stroke-miterlimit:10;}
	.st44{fill:none;stroke:url(#SVGID_25_);stroke-width:1.2025;stroke-linecap:round;stroke-linejoin:round;stroke-miterlimit:10;}
	.st45{fill:none;stroke:url(#SVGID_26_);stroke-width:1.2025;stroke-linecap:round;stroke-linejoin:round;stroke-miterlimit:10;}
	.st46{fill:none;stroke:url(#SVGID_27_);stroke-width:1.2025;stroke-linecap:round;stroke-linejoin:round;stroke-miterlimit:10;}
	.st47{fill:none;stroke:url(#SVGID_28_);stroke-width:1.2025;stroke-linecap:round;stroke-linejoin:round;stroke-miterlimit:10;}
	.st48{fill:none;stroke:url(#SVGID_29_);stroke-width:1.2025;stroke-linecap:round;stroke-linejoin:round;stroke-miterlimit:10;}
	.st49{fill:none;stroke:url(#SVGID_30_);stroke-width:1.2025;stroke-linecap:round;stroke-linejoin:round;stroke-miterlimit:10;}
	.st50{fill:#4B180F;}
	.st51{fill:none;stroke:url(#SVGID_31_);stroke-width:1.2025;stroke-linecap:round;stroke-linejoin:round;stroke-miterlimit:10;}
	.st52{fill:none;stroke:url(#SVGID_32_);stroke-width:1.2025;stroke-linecap:round;stroke-linejoin:round;stroke-miterlimit:10;}
	.st53{fill:none;stroke:url(#SVGID_33_);stroke-width:1.2025;stroke-linecap:round;stroke-linejoin:round;stroke-miterlimit:10;}
	.st54{fill:#FFAE3A;}
	.st55{fill:#6BB6FF;}
	.st56{fill:#6B88FF;}
	.st57{fill:#3B395C;}
	.st58{fill:none;stroke:url(#SVGID_34_);stroke-width:1.2025;stroke-linecap:round;stroke-linejoin:round;stroke-miterlimit:10;}
	.st59{fill:none;stroke:url(#SVGID_35_);stroke-width:1.2025;stroke-linecap:round;stroke-linejoin:round;stroke-miterlimit:10;}
	.st60{fill:none;stroke:url(#SVGID_36_);stroke-width:1.2025;stroke-linecap:round;stroke-linejoin:round;stroke-miterlimit:10;}
	.st61{fill:none;stroke:url(#SVGID_37_);stroke-width:1.2025;stroke-linecap:round;stroke-linejoin:round;stroke-miterlimit:10;}
	.st62{fill:none;stroke:url(#SVGID_38_);stroke-width:1.2025;stroke-linecap:round;stroke-linejoin:round;stroke-miterlimit:10;}
	.st63{fill:none;stroke:url(#SVGID_39_);stroke-width:1.2025;stroke-linecap:round;stroke-linejoin:round;stroke-miterlimit:10;}
	.st64{fill:none;stroke:url(#SVGID_40_);stroke-width:1.2025;stroke-linecap:round;stroke-linejoin:round;stroke-miterlimit:10;}
	.st65{fill:none;stroke:url(#SVGID_41_);stroke-width:1.2025;stroke-linecap:round;stroke-linejoin:round;stroke-miterlimit:10;}
	.st66{fill:none;stroke:url(#SVGID_42_);stroke-width:1.2025;stroke-linecap:round;stroke-linejoin:round;stroke-miterlimit:10;}
	.st67{fill:none;stroke:url(#SVGID_43_);stroke-width:1.2025;stroke-linecap:round;stroke-linejoin:round;stroke-miterlimit:10;}
	.st68{fill:none;stroke:url(#SVGID_44_);stroke-width:1.2025;stroke-linecap:round;stroke-linejoin:round;stroke-miterlimit:10;}
</style>
<g>
	<linearGradient id="SVGID_1_" gradientUnits="userSpaceOnUse" x1="310.3971" y1="242.9102" x2="375.3406" y2="242.9102">
		<stop  offset="0.4447" style="stop-color:#63A9FF"/>
		<stop  offset="0.9658" style="stop-color:#638EFF"/>
	</linearGradient>
	<path class="st0" d="M373.16,200.14c0,0,1.19,30.81,1.33,41.39c0.29,22.21-0.02,40.88,0.83,46.63c0.85,5.74-17.94,3.71-18.39,1.94
		c-3.47-13.6-11.3-18.74-11.3-18.74s-20.96-7.16-21.38-7.86c-0.43-0.69-14.29-4.4-13.84-11.54c0.45-7.14,1.31-7.43,2.92-11.4
		c1.61-3.97,23.36-36.42,23.28-36.5c-0.07-0.08,13.37-10.19,13.37-10.19L373.16,200.14z"/>
	
		<linearGradient id="SVGID_2_" gradientUnits="userSpaceOnUse" x1="4690.2646" y1="241.2046" x2="4747.6743" y2="241.2046" gradientTransform="matrix(-1 0 0 1 4825.833 0)">
		<stop  offset="0.4447" style="stop-color:#63A9FF"/>
		<stop  offset="0.9658" style="stop-color:#638EFF"/>
	</linearGradient>
	<path class="st1" d="M79.86,195.95c0,0,4.59,30.88,4.45,41.46c-0.1,7.76,2.12,18.97,2.84,26.19c0.16,1.66-7.97,21.17-8.52,24.91
		c-0.85,5.74-3.54-9.63,26.19-23.25c7.74-3.55,16.89-3.99,16.89-3.99s7.3-1.94,7.73-2.64c0.43-0.69,2.83,4.29,2.38-2.85
		c-0.45-7.14,5.08-8.57,3.47-12.54c-1.61-3.97-21.78-41.56-21.7-41.64c0.07-0.08-21.24-8.93-21.24-8.93L79.86,195.95z"/>
	<path class="st2" d="M175.4,164.24c0,0-1.89-27.24-37.98-31.77c-18.04-2.26-25.96-22.28-25.96-22.28l2.11-0.81l42.21-2.28
		l23.8,10.98L175.4,164.24z"/>
	<path class="st3" d="M184.59,190.28c0,0-17.3,2.86-23.51,12.38c-11.17,17.12-17.4,46.92-5.3,51.36
		c25.12,9.22,39.69,14.3,52.87,32.51c8.92,12.33,29.04-11.26,29.04-11.26l11.49-6.86c0,0,24.77-9.31,25.98-9.77
		s12.15-27.41,7.7-32.17s-17.27-16.86-22.28-22.18c-5.01-5.32-27.64-11.82-27.64-11.82S205.35,210.94,184.59,190.28z"/>
	<path class="st3" d="M235.08,190.28c0,0-17.3,2.86-23.51,12.38c-11.17,17.12-13.74,44.96-2.92,51.97
		c16.4,10.62,15.86,2.42,29.04,20.63l34.16-14.66l11.49-6.86c0,0,13.8-3.98,15.02-4.44c1.22-0.46,3.65-28.22-0.81-32.98
		s-1.17-3.58-6.18-8.9c-5.01-5.32-7.94-14.96-7.94-14.96S255.84,210.94,235.08,190.28z"/>
	<path class="st4" d="M310.41,265.25c0,0,9.66,8.37,20.02,11.17s22.54,6.66,20.3,15.87c-2.24,9.21-9.9,42.84-5.87,48.11
		s1.3,21.47,1.3,21.47s11.34,16.1,11.29,11.24c-0.05-4.86,1.81-79.88-2.86-89.03c-4.67-9.15-1.7-12.96-24.15-18.83
		c-22.45-5.87-15.5-8.31-15.5-8.31L310.41,265.25z"/>
	<path class="st5" d="M324.24,306.91c-1.96,5.73-2,16.67-5.56,23.56c-3.56,6.89-18.75,8.51-20.88,14.99
		c-2.13,6.48,13.27,29.47,13.27,29.47l13.4-1.92c0,0-0.19-14.31,2.6-24.04c2.6-9.09,10.33-24.98,10.42-36.32
		c0.12-14.67-3.42-22.15-3.42-22.15S325.79,302.38,324.24,306.91z"/>
	<linearGradient id="SVGID_3_" gradientUnits="userSpaceOnUse" x1="94.4988" y1="335.6069" x2="124.9092" y2="335.6069">
		<stop  offset="0.4447" style="stop-color:#63A9FF"/>
		<stop  offset="0.9658" style="stop-color:#638EFF"/>
	</linearGradient>
	<path class="st6" d="M95.37,363.46c0.23-1.22,4.99-47.92,4.68-49.44c-0.3-1.52,4.86-20.01,5.47-13.03
		c0.61,6.99,1.97,15.53,8.05,17.84c6.08,2.31,2.52,24.38,6.42,30.27c19.55,29.47-25.49,21.76-25.49,21.76L95.37,363.46z"/>
	<g>
		<path class="st7" d="M116.33,81.97c1.64,9.18-0.73,20.41-4.87,28.22c0,0,4.17,9.49,24.69,9.52c13.43,0.02,24.93-9.52,24.93-9.52
			s-5.3-11.5-5.3-28.22C155.78,80.96,116.33,81.97,116.33,81.97z"/>
		<path class="st8" d="M106.09,50.79c0,0,4.15,25.47,10.69,33.68c6.53,8.2,13.47,15.55,23.8,14.03s23.85-21.72,19.75-45.42
			s-24.15-24.51-30.07-22.99c-5.92,1.52-13.34,3.39-16.69,5.67C110.23,38.03,106.09,50.79,106.09,50.79z"/>
		<linearGradient id="SVGID_4_" gradientUnits="userSpaceOnUse" x1="71.8856" y1="138.3321" x2="112.0594" y2="138.3321">
			<stop  offset="0.4447" style="stop-color:#63A9FF"/>
			<stop  offset="0.9658" style="stop-color:#638EFF"/>
		</linearGradient>
		<path class="st9" d="M111.46,110.19c0,0-35.4,6.89-36.61,20.66s-2.36,35.62-2.36,35.62"/>
		<linearGradient id="SVGID_5_" gradientUnits="userSpaceOnUse" x1="163.9787" y1="152.138" x2="196.0714" y2="152.138">
			<stop  offset="0.4447" style="stop-color:#63A9FF"/>
			<stop  offset="0.9658" style="stop-color:#638EFF"/>
		</linearGradient>
		<path class="st10" d="M164.58,111.61c0,0,30.59,10.94,30.79,20.86s0.04,60.19,0.04,60.19"/>
	</g>
	<g>
		<path class="st11" d="M273.46,81.97c-2.03,1.62-4.25,21.82-8.4,29.64c0,0,11.53,15.43,29.26,13.98
			c16.09-1.32,20.6-15.39,20.6-15.39s-7.03-27.55-7.84-26.94C306.27,83.86,273.46,81.97,273.46,81.97z"/>
		<path class="st7" d="M259.94,50.79c0,0,4.15,25.47,10.69,33.68s13.47,15.55,23.8,14.03s23.85-21.72,19.75-45.42
			s-20.82-19.9-26.74-18.38c-5.92,1.52-12.61,4.41-15.95,6.68C268.14,43.65,259.94,50.79,259.94,50.79z"/>
		<linearGradient id="SVGID_6_" gradientUnits="userSpaceOnUse" x1="224.4433" y1="155.4632" x2="265.6599" y2="155.4632">
			<stop  offset="0.4447" style="stop-color:#63A9FF"/>
			<stop  offset="0.9658" style="stop-color:#638EFF"/>
		</linearGradient>
		<path class="st12" d="M265.06,111.61c0,0-35.15,5.47-36.37,19.24s-3.65,68.47-3.65,68.47"/>
		<linearGradient id="SVGID_7_" gradientUnits="userSpaceOnUse" x1="314.3231" y1="121.3316" x2="349.8159" y2="121.3316">
			<stop  offset="0.4447" style="stop-color:#63A9FF"/>
			<stop  offset="0.9658" style="stop-color:#638EFF"/>
		</linearGradient>
		<path class="st13" d="M314.92,110.19c0,0,34.09,12.36,34.29,22.28"/>
	</g>
	<g>
		<path class="st14" d="M46.69,161.79c-2.03,1.62,1.18,17.52-2.97,25.33c-2.54-0.84,2.83,3.01,22.56,3.01
			c12.46,0,22.96-4.78,22.96-4.78s-4.9-19.38-5.71-18.77C82.72,167.19,46.69,161.79,46.69,161.79z"/>
		<path class="st15" d="M36.38,134.12c0,0,4.15,25.47,10.69,33.68s13.47,15.55,23.8,14.03s23.85-21.72,19.75-45.42
			s-20.82-19.9-26.74-18.38s-14.46,2.1-17.8,4.38C42.74,124.67,36.38,134.12,36.38,134.12z"/>
		<linearGradient id="SVGID_8_" gradientUnits="userSpaceOnUse" x1="91.2339" y1="227.5165" x2="126.3537" y2="227.5165">
			<stop  offset="0.4447" style="stop-color:#63A9FF"/>
			<stop  offset="0.9658" style="stop-color:#638EFF"/>
		</linearGradient>
		<path class="st16" d="M91.84,193.73c0,0,33.62,12.15,33.83,22.07c0.2,9.93,0,45.51,0,45.51"/>
	</g>
	<g>
		<path class="st7" d="M191.47,164.24c-2.03,1.62-4.25,21.82-8.4,29.64c0,0,7.82,13.55,29.26,13.98
			c12.71,0.26,20.6-15.39,20.6-15.39s-7.03-27.55-7.84-26.94C224.29,166.13,191.47,164.24,191.47,164.24z"/>
		<path class="st8" d="M177.95,133.06c0,0,4.15,25.47,10.69,33.68s13.47,15.55,23.8,14.03s23.85-21.72,19.75-45.42
			s-20.82-19.9-26.74-18.38c-5.92,1.52-12.61,4.41-15.95,6.68C186.15,125.92,177.95,133.06,177.95,133.06z"/>
		<linearGradient id="SVGID_9_" gradientUnits="userSpaceOnUse" x1="142.4577" y1="229.7561" x2="185.1923" y2="229.7561">
			<stop  offset="0.4447" style="stop-color:#63A9FF"/>
			<stop  offset="0.9658" style="stop-color:#638EFF"/>
		</linearGradient>
		<path class="st17" d="M184.59,190.28c0,0-36.67,9.07-37.89,22.84c-1.22,13.77-3.65,56.11-3.65,56.11"/>
		<linearGradient id="SVGID_10_" gradientUnits="userSpaceOnUse" x1="235.8385" y1="217.5777" x2="269.2816" y2="217.5777">
			<stop  offset="0.4447" style="stop-color:#63A9FF"/>
			<stop  offset="0.9658" style="stop-color:#638EFF"/>
		</linearGradient>
		<path class="st18" d="M236.44,193.88c0,0,30.59,10.94,30.79,20.86c0.2,9.93,1.45,26.54,1.45,26.54"/>
	</g>
	<g>
		<path class="st19" d="M358.38,164.24c-2.03,1.62-4.25,21.82-8.4,29.64c0,0,5.14,14.86,29.26,13.98
			c16.45-0.6,20.6-15.39,20.6-15.39s-7.03-27.55-7.84-26.94C391.2,166.13,358.38,164.24,358.38,164.24z"/>
		<path class="st14" d="M344.86,133.06c0,0,2.51,28.81,9.04,37.02s15.11,12.2,25.44,10.68s23.85-21.72,19.75-45.42
			s-20.82-19.9-26.74-18.38c-5.92,1.52-12.61,4.41-15.95,6.68C353.06,125.92,344.86,133.06,344.86,133.06z"/>
		<linearGradient id="SVGID_11_" gradientUnits="userSpaceOnUse" x1="398.352" y1="242.8734" x2="445.1012" y2="242.8734">
			<stop  offset="0.4447" style="stop-color:#63A9FF"/>
			<stop  offset="0.9658" style="stop-color:#638EFF"/>
		</linearGradient>
		<path class="st20" d="M398.95,188.99c0,0,43.93,13.74,45.26,33.83c0.65,9.91,0,73.93,0,73.93"/>
	</g>
	<path class="st21" d="M127.09,232.78c-2.03,1.62-2.96,19.66-7.1,27.47c0,0,24.28,15.79,25.29,14.98s23.27-16.61,23.27-16.61
		s-7.03-25.18-7.84-24.57C159.9,234.67,127.09,232.78,127.09,232.78z"/>
	<path class="st22" d="M113.57,201.6c0,0,3.58,21.79,8.99,30.77c4.43,7.36,10.91,18.8,25.49,16.93
		c10.36-1.33,23.85-21.72,19.75-45.42s-17.61-23.7-23.53-22.18c-5.92,1.52-15.82,8.2-19.16,10.48
		C121.77,194.46,113.57,201.6,113.57,201.6z"/>
	<path class="st14" d="M277.39,232.78c-2.03,1.62-2.23,25.85-6.39,28.48c0,0,2.55,7.38,22.7,9.76
		c12.18,1.44,25.16-10.03,25.16-10.03s-7.03-27.55-7.84-26.94S277.39,232.78,277.39,232.78z"/>
	<path class="st23" d="M149.19,165.59c-10.15-3.24-21.39,1.37-26.05,8.05s-25.62,21.32-10.63,36.92c0,0,5.36,10.26,5.24,9.58
		c-0.12-0.68,0.02-19.91,5.7-20.11s11.55,1.42,16.2-4.05c4.66-5.47,16.41-11.67,16.41-11.67s14.64,17.46,12.5,30.18s1.27,0,1.27,0
		s10.53-10.29,6.28-18.96c-4.25-8.67-11.14-27.5-16.61-27.1S151.82,166.43,149.19,165.59z"/>
	<linearGradient id="SVGID_12_" gradientUnits="userSpaceOnUse" x1="167.9563" y1="312.5411" x2="219.1899" y2="312.5411">
		<stop  offset="0.4447" style="stop-color:#63A9FF"/>
		<stop  offset="0.9658" style="stop-color:#638EFF"/>
	</linearGradient>
	<path class="st24" d="M168.56,258.63c0,0,34.71,15.47,36.89,25.16c3.69,16.44,13.88,84.1,13.1,82.65"/>
	<linearGradient id="SVGID_13_" gradientUnits="userSpaceOnUse" x1="230.3486" y1="313.8472" x2="270.9223" y2="313.8472">
		<stop  offset="0.4447" style="stop-color:#63A9FF"/>
		<stop  offset="0.9658" style="stop-color:#638EFF"/>
	</linearGradient>
	<path class="st25" d="M270.32,261.26c0,0-20.78,6.72-28.07,10.07c-7.29,3.34-11.85,18.23-11.24,28.56
		c0.61,10.33-0.05,66.54-0.05,66.54"/>
	
		<linearGradient id="SVGID_14_" gradientUnits="userSpaceOnUse" x1="5333.9712" y1="309.1207" x2="5373.2393" y2="309.1207" gradientTransform="matrix(-1 0 0 1 5691.4961 0)">
		<stop  offset="0.4447" style="stop-color:#63A9FF"/>
		<stop  offset="0.9658" style="stop-color:#638EFF"/>
	</linearGradient>
	<path class="st26" d="M318.86,261c0,0,19.48,7.02,26.77,10.36c7.29,3.34,11.85,18.23,11.24,28.56
		c-0.61,10.33,0.05,57.32,0.05,57.32"/>
	<linearGradient id="SVGID_15_" gradientUnits="userSpaceOnUse" x1="113.569" y1="271.0561" x2="144.274" y2="271.0561">
		<stop  offset="0.4447" style="stop-color:#63A9FF"/>
		<stop  offset="0.9658" style="stop-color:#638EFF"/>
	</linearGradient>
	<polygon class="st27" points="144.27,274.99 113.57,281.86 119.99,260.25 	"/>
	<linearGradient id="SVGID_16_" gradientUnits="userSpaceOnUse" x1="145.2829" y1="270.2938" x2="176.1108" y2="270.2938">
		<stop  offset="0.4447" style="stop-color:#63A9FF"/>
		<stop  offset="0.9658" style="stop-color:#638EFF"/>
	</linearGradient>
	<path class="st28" d="M145.28,275.23c0,0,31.03,7.67,30.83,6.63c-0.2-1.04-7.55-23.24-7.55-23.24L145.28,275.23z"/>
	<path class="st29" d="M41.21,152.14c0,0,4.58-13.96,7.44-22.48s1.57-10.57,10.07-5.31c8.5,5.27,28.82,15.82,33.6,11.77
		c4.78-4.05-3.3-33.24-21.13-33.74s-29.49,2.41-34.32,13.39C34.39,121.43,29.87,138.11,41.21,152.14z"/>
	<path class="st30" d="M222.26,120.02c0,0-8.69,17.33-21.94,19.02c-13.26,1.69-14.31-0.42-15.72,4.67
		c-3.27,11.75,5.41,24.71,5.41,24.71l-3.91,27.02c0,0-19.85,8.82-14.04-54.82c1.62-17.78,15.5-40.67,35.95-38.25
		c16.46,1.95,33.4,13.72,35.57,29.39c8.98,64.69-10.64,60.7-10.64,60.7l-6.72-23.38C226.22,169.08,235.76,131.36,222.26,120.02z"/>
	<path class="st23" d="M353.02,164.24c0,0-6.05-25.2,10.05-34.91c5.94-3.58,5.94-3.58,5.94-3.58s2.77,3.88,7.23,4.9
		s18.34,5.02,21.54,16.41c0.66,2.35,15.87-9.76,5.57-21.44s-25.36-24.64-31-19.78c-5.64,4.86-22.49,0.77-25.32,9.94
		C344.21,124.94,335.73,154.65,353.02,164.24z"/>
	<path class="st23" d="M347.88,156.48c0,0-0.14,3.7,1.33,10.53c1.88,8.71,10.39,30.08,26.47,27.71c19.19-2.82,22.03-36.1,22.03-36.1
		s1.02,1.87-5.47,8.15c-1.3,1.26-3.85,8.18-11.14,8.92s-13.58-0.83-18.03-7.26C358.57,161.92,347.88,156.48,347.88,156.48z"/>
	<path class="st31" d="M275.92,40.02c0,0,1.58,7.23-3.28,11.63s-3.45,12.38-3.8,14.45s1.19,16.46,0.48,14.18
		c-0.71-2.29-21.7-24.27-4.23-49.39c9.96-14.32,29-11.59,31.95-10.78c11.44,3.13,23.03,16.5,24.45,26.22
		c1.83,12.51-4.45,19.08-5.35,16.36C308.17,38.56,276.32,56.63,275.92,40.02z"/>
	<path class="st31" d="M269.47,36h-3.3c-6.77,0-12.31-5.54-12.31-12.31v-3.3c0-6.77,5.54-12.31,12.31-12.31h3.3
		c6.77,0,12.31,5.54,12.31,12.31v3.3C281.79,30.46,276.24,36,269.47,36z"/>
	<path class="st32" d="M119.99,260.25c0,0-20.85,7.91-26.02,10.86c-5.17,2.95-11.85,8.42-14.28,16.32c-2.43,7.9-15.02,79-15.02,79"
		/>
	<line class="st32" x1="145.28" y1="302.02" x2="145.28" y2="364"/>
	<line class="st32" x1="186.23" y1="315.78" x2="190.59" y2="366.46"/>
	<linearGradient id="SVGID_17_" gradientUnits="userSpaceOnUse" x1="248.5763" y1="334.5286" x2="261.4054" y2="334.5286">
		<stop  offset="0.4447" style="stop-color:#63A9FF"/>
		<stop  offset="0.9658" style="stop-color:#638EFF"/>
	</linearGradient>
	<path class="st33" d="M252.56,295.94c-1.2,0.91-6.97,25.67,0,34.94c3.81,5.06,9.13,21.81,8.12,42.24"/>
	
		<linearGradient id="SVGID_18_" gradientUnits="userSpaceOnUse" x1="5357.2881" y1="332.7069" x2="5370.8604" y2="332.7069" gradientTransform="matrix(-1 0 0 1 5694.5024 0)">
		<stop  offset="0.4447" style="stop-color:#63A9FF"/>
		<stop  offset="0.9658" style="stop-color:#638EFF"/>
	</linearGradient>
	<path class="st34" d="M334.08,292.3c1.2,0.91,3.64,25.81,1.97,31.93c-2.79,10.22-12.75,28.46-11.73,48.89"/>
	<linearGradient id="SVGID_19_" gradientUnits="userSpaceOnUse" x1="1.8988" y1="244.3039" x2="37.478" y2="244.3039">
		<stop  offset="0.4447" style="stop-color:#63A9FF"/>
		<stop  offset="0.9658" style="stop-color:#638EFF"/>
	</linearGradient>
	<path class="st35" d="M36.88,192.67c0,0-22.61,15.47-24.64,16.69c-2.03,1.22-10.13,7.48-9.72,21.57
		c0.41,14.08,1.22,65.02,1.22,65.02"/>
	<line class="st36" x1="36.88" y1="252.09" x2="36.88" y2="295.94"/>
	<linearGradient id="SVGID_20_" gradientUnits="userSpaceOnUse" x1="29.819" y1="272.2799" x2="31.0215" y2="272.2799">
		<stop  offset="0.4447" style="stop-color:#63A9FF"/>
		<stop  offset="0.9658" style="stop-color:#638EFF"/>
	</linearGradient>
	<line class="st37" x1="30.42" y1="248.01" x2="30.42" y2="296.55"/>
	<path class="st38" d="M118.06,86.06c2.5,5.04-19.75-3.96-28.33-13.14c-0.89-0.95,3.53-27.03,13.45-37.57s18.43-6.68,18.64-7.29
		s-1.82-4.46,5.87-7.49s29.17,2.36,34.64,9.05s20.74,36.49,10.94,44.63c-6.97,5.79-17.49,10.02-17.49,10.02s2.91-41.42-10.46-41.42
		c-6.21,0-24.1-6.08-24.1-6.08S107.19,64.15,118.06,86.06z"/>
	<circle class="st39" cx="132.77" cy="216.32" r="8.9"/>
	<circle class="st39" cx="155.78" cy="216.32" r="8.9"/>
	<path class="st39" d="M146.54,214.92c0,0-2.89-2.23-4.38,0"/>
	<linearGradient id="SVGID_21_" gradientUnits="userSpaceOnUse" x1="43.1196" y1="190.2795" x2="94.397" y2="190.2795">
		<stop  offset="0.4447" style="stop-color:#63A9FF"/>
		<stop  offset="0.9658" style="stop-color:#638EFF"/>
	</linearGradient>
	<path class="st40" d="M43.72,187.12c0,0,25.04,7.79,46.01-2.83c0,0,7.03,2.03,2.59,8.38c0,0-24.49,6.8-43.93,1.71"/>
	<linearGradient id="SVGID_22_" gradientUnits="userSpaceOnUse" x1="54.1743" y1="230.8561" x2="60.6548" y2="230.8561">
		<stop  offset="0.4447" style="stop-color:#63A9FF"/>
		<stop  offset="0.9658" style="stop-color:#638EFF"/>
	</linearGradient>
	<line class="st41" x1="60.05" y1="196.46" x2="54.78" y2="265.25"/>
	<linearGradient id="SVGID_23_" gradientUnits="userSpaceOnUse" x1="74.2279" y1="230.6511" x2="87.9081" y2="230.6511">
		<stop  offset="0.4447" style="stop-color:#63A9FF"/>
		<stop  offset="0.9658" style="stop-color:#638EFF"/>
	</linearGradient>
	<path class="st42" d="M80.07,196.05c0.35-0.07,7.23,69.2,7.23,69.2H74.83"/>
	<linearGradient id="SVGID_24_" gradientUnits="userSpaceOnUse" x1="231.9293" y1="296.0961" x2="238.5935" y2="296.0961">
		<stop  offset="0.4447" style="stop-color:#63A9FF"/>
		<stop  offset="0.9658" style="stop-color:#638EFF"/>
	</linearGradient>
	<path class="st43" d="M232.55,286.53c0,0-0.63,9.72,5.44,19.14"/>
	<linearGradient id="SVGID_25_" gradientUnits="userSpaceOnUse" x1="230.4027" y1="305.6614" x2="237.0128" y2="305.6614">
		<stop  offset="0.4447" style="stop-color:#63A9FF"/>
		<stop  offset="0.9658" style="stop-color:#638EFF"/>
	</linearGradient>
	<path class="st44" d="M231,299.89c0,0,1.53,6.84,5.41,11.54"/>
	<linearGradient id="SVGID_26_" gradientUnits="userSpaceOnUse" x1="230.6284" y1="314.4515" x2="237.0128" y2="314.4515">
		<stop  offset="0.4447" style="stop-color:#63A9FF"/>
		<stop  offset="0.9658" style="stop-color:#638EFF"/>
	</linearGradient>
	<path class="st45" d="M231.23,309.12c0,0,1.3,5.96,5.18,10.66"/>
	<linearGradient id="SVGID_27_" gradientUnits="userSpaceOnUse" x1="231.3095" y1="324.0225" x2="237.0128" y2="324.0225">
		<stop  offset="0.4447" style="stop-color:#63A9FF"/>
		<stop  offset="0.9658" style="stop-color:#638EFF"/>
	</linearGradient>
	<path class="st46" d="M231.91,319.78c0,0,0.62,3.78,4.5,8.48"/>
	<linearGradient id="SVGID_28_" gradientUnits="userSpaceOnUse" x1="230.6284" y1="332.0765" x2="237.0128" y2="332.0765">
		<stop  offset="0.4447" style="stop-color:#63A9FF"/>
		<stop  offset="0.9658" style="stop-color:#638EFF"/>
	</linearGradient>
	<path class="st47" d="M231.23,327.54c0,0,1.3,4.37,5.18,9.07"/>
	<linearGradient id="SVGID_29_" gradientUnits="userSpaceOnUse" x1="231.039" y1="339.9244" x2="237.0128" y2="339.9244">
		<stop  offset="0.4447" style="stop-color:#63A9FF"/>
		<stop  offset="0.9658" style="stop-color:#638EFF"/>
	</linearGradient>
	<path class="st48" d="M231.64,335.28c0,0,0.89,4.59,4.77,9.29"/>
	<linearGradient id="SVGID_30_" gradientUnits="userSpaceOnUse" x1="230.4027" y1="347.149" x2="237.0128" y2="347.149">
		<stop  offset="0.4447" style="stop-color:#63A9FF"/>
		<stop  offset="0.9658" style="stop-color:#638EFF"/>
	</linearGradient>
	<path class="st49" d="M231,341.38c0,0,1.53,6.84,5.41,11.54"/>
	<path class="st50" d="M273.08,37.57c0,0,4.92,5.67,12.01,7.7c7.09,2.03,26.76,0.33,29.84,3.85c3.08,3.52,5,6.21,2.98,16.98
		s-6.47,14.18-6.47,14.18s5.66-18.03,1.21-21.35s-12.76-8.65-20.27-9.4c-5.1-0.51-12.39,0.4-16.39-3.19
		C274.08,44.63,272.92,41.92,273.08,37.57z"/>
	<linearGradient id="SVGID_31_" gradientUnits="userSpaceOnUse" x1="417.8733" y1="273.7846" x2="419.0757" y2="273.7846">
		<stop  offset="0.4447" style="stop-color:#63A9FF"/>
		<stop  offset="0.9658" style="stop-color:#638EFF"/>
	</linearGradient>
	<line class="st51" x1="418.47" y1="249.5" x2="418.47" y2="298.07"/>
	<linearGradient id="SVGID_32_" gradientUnits="userSpaceOnUse" x1="382.585" y1="267.6833" x2="406.5756" y2="267.6833">
		<stop  offset="0.4447" style="stop-color:#63A9FF"/>
		<stop  offset="0.9658" style="stop-color:#638EFF"/>
	</linearGradient>
	<polyline class="st52" points="383.19,254.92 405.97,254.92 405.97,280.44 	"/>
	<path class="st50" d="M255.31,22.03c0,0,2.56,2.57,4.62,2.27c2.06-0.3,12.67-3.93,14.81-2.27c2.14,1.66-13.39,12.92-13.39,12.92
		S251.81,33.46,255.31,22.03z"/>
	<linearGradient id="SVGID_33_" gradientUnits="userSpaceOnUse" x1="264.4575" y1="124.9312" x2="302.4004" y2="124.9312">
		<stop  offset="0.4447" style="stop-color:#63A9FF"/>
		<stop  offset="0.9658" style="stop-color:#638EFF"/>
	</linearGradient>
	<path class="st53" d="M265.06,118.8c0,0,11.67,18.08,36.74,10.33"/>
	<path class="st54" d="M229.35,138.71c1.27,22.02-3.13,30.37-3.13,30.37l6.72,23.38c0,0,2.02-15.78,5.21-20.03
		c3.19-4.25-3.8-31.16-3.8-31.16s-3.06-15.93-12.09-21.25C222.26,120.02,228.87,130.24,229.35,138.71z"/>
	<path class="st54" d="M186.33,140.63c0,0-2.69,11.39,3.67,27.8c0,0-1.47,36.25-6.93,25.45c-0.71-1.4-6.63-22.61-3.05-28.49
		c3.58-5.87,1.15-17.83,0.95-19.24C180.77,144.73,186.33,140.63,186.33,140.63z"/>
	<path class="st55" d="M300.09,208.74H287.3c-14.7,0-26.73-12.03-26.73-26.73v-0.63c0-14.7,12.03-26.73,26.73-26.73h12.78
		c14.7,0,26.73,12.03,26.73,26.73v0.63C326.82,196.71,314.79,208.74,300.09,208.74z"/>
	<ellipse class="st56" cx="291.36" cy="192.67" rx="55.6" ry="24.24"/>
	<path class="st15" d="M263.87,201.6c0,0,4.15,25.47,10.69,33.68c6.53,8.2,13.47,15.55,23.8,14.03s23.85-21.72,19.75-45.42
		c-4.1-23.7-20.82-19.9-26.74-18.38c-5.92,1.52-12.61,4.41-15.95,6.68C272.07,194.46,263.87,201.6,263.87,201.6z"/>
	<path class="st29" d="M303.93,178.96c0,0-10.63,14.28-18.23,13.98c-7.6-0.3-13.67-1.22-13.07,5.77c0.61,6.99-2.31,10.03-2.31,10.03
		s-3.52,14.17,6.21,28.63c3.29,4.89-26.08,12.24-33.22-6.75c-2.73-7.25,0.15-21.07,3.49-23.2c3.34-2.13,12.76-11.74,12.46-15.08
		C258.96,188.99,267.77,174.4,303.93,178.96z"/>
	<path class="st29" d="M297.55,182.91c0,0,4.98,14.04,12.15,14.89c7.17,0.85,9.15,13.75,9.15,13.75s-3.07,19.11-6.5,25.72l1.62,5.45
		c0,0,20.12,4.69,27.94-20c3.78-11.94-6.99-20.97-12.15-24.61s-2.13-4.11-4.25-8.44c-2.13-4.32-16.76-12.11-23-10.88
		C300.92,179.1,297.55,182.91,297.55,182.91z"/>
	<path class="st57" d="M279.31,192.46c-18.43,1.62-8.37,17.45-12.09,20.87c-3.71,3.42-9.26,9.33-6.42,15.16
		c3.62,7.44,15.73,8.88,15.73,8.88s-5.16-8.17-6.21-15.94c-1.05-7.77,1.26-12.94,2.75-16.97
		C274.04,201.85,279.31,192.46,279.31,192.46z"/>
	<path class="st57" d="M305.84,196.05c0,0,6.11,0.53,9.09,3.27c2.98,2.74,11.78,16.15,11.89,20.85c0.66,26.85-14.47,17.1-14.47,17.1
		s6.08-12.05,4.32-19.69C314.64,208.73,314.13,200.68,305.84,196.05z"/>
	<linearGradient id="SVGID_34_" gradientUnits="userSpaceOnUse" x1="306.8696" y1="122.1936" x2="318.4027" y2="122.1936">
		<stop  offset="0.4447" style="stop-color:#63A9FF"/>
		<stop  offset="0.9658" style="stop-color:#638EFF"/>
	</linearGradient>
	<path class="st58" d="M307.47,127.11c0,0,7.09-3.14,10.33-9.82"/>
	<linearGradient id="SVGID_35_" gradientUnits="userSpaceOnUse" x1="270.3946" y1="278.7132" x2="315.8228" y2="278.7132">
		<stop  offset="0.4447" style="stop-color:#63A9FF"/>
		<stop  offset="0.9658" style="stop-color:#638EFF"/>
	</linearGradient>
	<path class="st59" d="M271,267.68c0,0,18.63,21.92,23.93,22.06c5.31,0.14,20.29-14.48,20.29-14.48"/>
	<linearGradient id="SVGID_36_" gradientUnits="userSpaceOnUse" x1="417.8733" y1="265.7804" x2="426.4214" y2="265.7804">
		<stop  offset="0.4447" style="stop-color:#63A9FF"/>
		<stop  offset="0.9658" style="stop-color:#638EFF"/>
	</linearGradient>
	<path class="st60" d="M425.82,259.3c-1.42,2.03-7.35,8.1-7.35,12.96"/>
	<linearGradient id="SVGID_37_" gradientUnits="userSpaceOnUse" x1="413.7235" y1="209.6678" x2="428.6106" y2="209.6678">
		<stop  offset="0.4447" style="stop-color:#63A9FF"/>
		<stop  offset="0.9658" style="stop-color:#638EFF"/>
	</linearGradient>
	<path class="st61" d="M414.32,216.91c1.06-1.26,11.57-6.88,13.68-14.48"/>
	<linearGradient id="SVGID_38_" gradientUnits="userSpaceOnUse" x1="411.0309" y1="204.1663" x2="422.7486" y2="204.1663">
		<stop  offset="0.4447" style="stop-color:#63A9FF"/>
		<stop  offset="0.9658" style="stop-color:#638EFF"/>
	</linearGradient>
	<path class="st62" d="M411.63,209.38c1.06-1.26,8.16-5.22,10.52-10.44"/>
	<linearGradient id="SVGID_39_" gradientUnits="userSpaceOnUse" x1="106.1061" y1="136.6362" x2="115.7934" y2="136.6362">
		<stop  offset="0.4447" style="stop-color:#63A9FF"/>
		<stop  offset="0.9658" style="stop-color:#638EFF"/>
	</linearGradient>
	<path class="st63" d="M115.19,132.39c-0.46,0.15-8.48,8.48-8.48,8.48"/>
	<linearGradient id="SVGID_40_" gradientUnits="userSpaceOnUse" x1="106.1061" y1="156.9736" x2="115.7934" y2="156.9736">
		<stop  offset="0.4447" style="stop-color:#63A9FF"/>
		<stop  offset="0.9658" style="stop-color:#638EFF"/>
	</linearGradient>
	<path class="st64" d="M115.19,152.73c-0.46,0.15-8.48,8.48-8.48,8.48"/>
	<linearGradient id="SVGID_41_" gradientUnits="userSpaceOnUse" x1="125.1512" y1="134.0896" x2="134.8386" y2="134.0896">
		<stop  offset="0.4447" style="stop-color:#63A9FF"/>
		<stop  offset="0.9658" style="stop-color:#638EFF"/>
	</linearGradient>
	<path class="st65" d="M134.24,129.85c-0.46,0.15-8.48,8.48-8.48,8.48"/>
	<linearGradient id="SVGID_42_" gradientUnits="userSpaceOnUse" x1="135.5129" y1="144.4513" x2="145.2003" y2="144.4513">
		<stop  offset="0.4447" style="stop-color:#63A9FF"/>
		<stop  offset="0.9658" style="stop-color:#638EFF"/>
	</linearGradient>
	<path class="st66" d="M144.6,140.21c-0.46,0.15-8.48,8.48-8.48,8.48"/>
	<linearGradient id="SVGID_43_" gradientUnits="userSpaceOnUse" x1="144.3442" y1="153.2826" x2="154.0316" y2="153.2826">
		<stop  offset="0.4447" style="stop-color:#63A9FF"/>
		<stop  offset="0.9658" style="stop-color:#638EFF"/>
	</linearGradient>
	<path class="st67" d="M153.43,149.04c-0.46,0.15-8.48,8.48-8.48,8.48"/>
	<linearGradient id="SVGID_44_" gradientUnits="userSpaceOnUse" x1="154.5197" y1="130.2558" x2="164.2072" y2="130.2558">
		<stop  offset="0.4447" style="stop-color:#63A9FF"/>
		<stop  offset="0.9658" style="stop-color:#638EFF"/>
	</linearGradient>
	<path class="st68" d="M163.61,126.01c-0.46,0.15-8.48,8.48-8.48,8.48"/>
</g>
</svg>
